<svg xmlns="http://www.w3.org/2000/svg" viewBox="0 0 1200 400" width="1200" height="400">
  <defs>
    <linearGradient id="bg" x1="0%" y1="0%" x2="100%" y2="100%">
      <stop offset="0%" style="stop-color:#0a0a0a"/>
      <stop offset="50%" style="stop-color:#111111"/>
      <stop offset="100%" style="stop-color:#0d0d0d"/>
    </linearGradient>
    <radialGradient id="glow1" cx="18%" cy="55%" r="30%">
      <stop offset="0%" style="stop-color:#2496ED;stop-opacity:0.15"/>
      <stop offset="100%" style="stop-color:#2496ED;stop-opacity:0"/>
    </radialGradient>
    <radialGradient id="glow2" cx="30%" cy="30%" r="20%">
      <stop offset="0%" style="stop-color:#2496ED;stop-opacity:0.08"/>
      <stop offset="100%" style="stop-color:#2496ED;stop-opacity:0"/>
    </radialGradient>
  </defs>
  <rect width="1200" height="400" fill="url(#bg)"/>
  <rect width="1200" height="400" fill="url(#glow1)"/>
  <rect width="1200" height="400" fill="url(#glow2)"/>

  <circle cx="421" cy="268" r="3.5" fill="white" opacity="0.4"/>
  <circle cx="165" cy="223" r="3.2" fill="white" opacity="0.7"/>
  <circle cx="92" cy="233" r="1.9" fill="white" opacity="0.4"/>
  <circle cx="180" cy="184" r="2.7" fill="white" opacity="0.7"/>
  <circle cx="275" cy="338" r="3.3" fill="white" opacity="0.7"/>
  <circle cx="222" cy="128" r="2.3" fill="white" opacity="0.5"/>
  <circle cx="137" cy="63" r="2.3" fill="white" opacity="0.6"/>
  <circle cx="170" cy="152" r="2.2" fill="white" opacity="0.3"/>
  <circle cx="410" cy="63" r="2.0" fill="white" opacity="0.6"/>
  <circle cx="151" cy="60" r="1.7" fill="white" opacity="0.4"/>
  <circle cx="277" cy="271" r="2.4" fill="white" opacity="0.7"/>
  <circle cx="276" cy="92" r="1.9" fill="white" opacity="0.4"/>
  <circle cx="326" cy="155" r="2.2" fill="white" opacity="0.3"/>
  <circle cx="149" cy="136" r="3.1" fill="white" opacity="0.7"/>
  <circle cx="83" cy="79" r="3.3" fill="white" opacity="0.5"/>
  <circle cx="366" cy="204" r="2.9" fill="white" opacity="0.7"/>
  <circle cx="367" cy="366" r="2.0" fill="white" opacity="0.8"/>
  <circle cx="458" cy="47" r="2.8" fill="white" opacity="0.8"/>
  <circle cx="265" cy="73" r="3.5" fill="white" opacity="0.4"/>
  <circle cx="350" cy="174" r="2.3" fill="white" opacity="0.7"/>
  <circle cx="293" cy="131" r="2.3" fill="white" opacity="0.7"/>
  <circle cx="495" cy="183" r="2.0" fill="white" opacity="0.6"/>
  <circle cx="53" cy="27" r="3.0" fill="white" opacity="0.7"/>
  <circle cx="47" cy="130" r="2.4" fill="white" opacity="0.3"/>
  <circle cx="461" cy="200" r="1.9" fill="white" opacity="0.4"/>
  <circle cx="349" cy="256" r="3.2" fill="white" opacity="0.5"/>
  <circle cx="178" cy="30" r="2.4" fill="white" opacity="0.7"/>
  <circle cx="365" cy="93" r="2.3" fill="white" opacity="0.7"/>
  <circle cx="104" cy="176" r="1.7" fill="white" opacity="0.5"/>
  <circle cx="250" cy="102" r="1.6" fill="white" opacity="0.4"/>
  <circle cx="255" cy="65" r="3.4" fill="white" opacity="0.5"/>
  <circle cx="405" cy="57" r="3.3" fill="white" opacity="0.7"/>
  <circle cx="195" cy="55" r="1.6" fill="white" opacity="0.7"/>
  <circle cx="307" cy="247" r="1.6" fill="white" opacity="0.4"/>
  <circle cx="40" cy="162" r="1.6" fill="white" opacity="0.7"/>
  <circle cx="323" cy="135" r="2.0" fill="white" opacity="0.6"/>
  <circle cx="97" cy="313" r="1.6" fill="white" opacity="0.8"/>
  <circle cx="312" cy="315" r="1.8" fill="white" opacity="0.4"/>
  <circle cx="51" cy="303" r="3.1" fill="white" opacity="0.6"/>
  <circle cx="262" cy="299" r="2.6" fill="white" opacity="0.6"/>
  <circle cx="198" cy="270" r="3.2" fill="white" opacity="0.5"/>
  <circle cx="259" cy="70" r="1.9" fill="white" opacity="0.4"/>
  <circle cx="326" cy="137" r="2.5" fill="white" opacity="0.6"/>
  <circle cx="472" cy="110" r="2.5" fill="white" opacity="0.4"/>
  <circle cx="256" cy="250" r="1.5" fill="white" opacity="0.5"/>
  <circle cx="211" cy="175" r="2.5" fill="white" opacity="0.7"/>
  <circle cx="261" cy="245" r="1.8" fill="white" opacity="0.6"/>
  <circle cx="300" cy="130" r="2.6" fill="white" opacity="0.4"/>
  <circle cx="459" cy="235" r="1.5" fill="white" opacity="0.6"/>
  <circle cx="62" cy="330" r="1.6" fill="white" opacity="0.5"/>
  <circle cx="443" cy="31" r="2.7" fill="white" opacity="0.8"/>
  <circle cx="409" cy="353" r="3.0" fill="white" opacity="0.5"/>
  <circle cx="321" cy="263" r="3.3" fill="white" opacity="0.4"/>
  <circle cx="102" cy="54" r="1.8" fill="white" opacity="0.4"/>
  <circle cx="309" cy="152" r="1.6" fill="white" opacity="0.6"/>

  <line x1="124" y1="105" x2="208" y2="144" stroke="white" stroke-width="0.5" opacity="0.12"/>
  <line x1="358" y1="272" x2="407" y2="244" stroke="white" stroke-width="0.5" opacity="0.12"/>
  <line x1="145" y1="106" x2="220" y2="72" stroke="white" stroke-width="0.5" opacity="0.12"/>
  <line x1="274" y1="119" x2="351" y2="97" stroke="white" stroke-width="0.5" opacity="0.12"/>
  <line x1="355" y1="219" x2="419" y2="176" stroke="white" stroke-width="0.5" opacity="0.12"/>
  <line x1="478" y1="49" x2="540" y2="65" stroke="white" stroke-width="0.5" opacity="0.12"/>
  <line x1="435" y1="265" x2="513" y2="256" stroke="white" stroke-width="0.5" opacity="0.12"/>
  <line x1="50" y1="92" x2="138" y2="54" stroke="white" stroke-width="0.5" opacity="0.12"/>
  <line x1="330" y1="177" x2="404" y2="223" stroke="white" stroke-width="0.5" opacity="0.12"/>
  <line x1="319" y1="103" x2="377" y2="64" stroke="white" stroke-width="0.5" opacity="0.12"/>
  <line x1="118" y1="314" x2="168" y2="341" stroke="white" stroke-width="0.5" opacity="0.12"/>
  <line x1="294" y1="179" x2="346" y2="204" stroke="white" stroke-width="0.5" opacity="0.12"/>
  <line x1="137" y1="185" x2="194" y2="194" stroke="white" stroke-width="0.5" opacity="0.12"/>
  <line x1="479" y1="123" x2="554" y2="156" stroke="white" stroke-width="0.5" opacity="0.12"/>

  <!-- 分隔线 4:5 位置 -->
  <line x1="533" y1="50" x2="533" y2="350" stroke="white" stroke-width="0.5" opacity="0.12"/>

  <!-- 主标题 -->
  <text x="560" y="120" font-family="'SF Pro Display','Helvetica Neue',Arial,sans-serif" font-size="52" font-weight="800" fill="white" letter-spacing="4">DOCKER OPTIMIZER</text>
  
  <!-- 中文项目名 -->
  <text x="560" y="180" font-family="'Noto Sans SC','PingFang SC','Microsoft YaHei',sans-serif" font-size="22" font-weight="500" fill="white" opacity="0.9" letter-spacing="3">Docker 镜像优化器</text>
  
  <!-- 功能描述 -->
  <text x="560" y="220" font-family="'Noto Sans SC','PingFang SC','Microsoft YaHei',sans-serif" font-size="14" font-weight="300" fill="white" opacity="0.5" letter-spacing="1.5">层分析 · 问题检测 · 优化建议 · Dockerfile 重写 · 安全扫描</text>
  
  <!-- 技术栈 -->
  <text x="560" y="270" font-family="'SF Mono','Fira Code','Consolas',monospace" font-size="12" fill="white" opacity="0.4" letter-spacing="1.5">Python · Click · Docker</text>
  
  <!-- 底部装饰线 -->
  <line x1="560" y1="310" x2="1160" y2="310" stroke="white" stroke-width="0.5" opacity="0.1"/>
  
  <!-- 底部关键词 -->
  <text x="560" y="340" font-family="'SF Mono','Fira Code','Consolas',monospace" font-size="10" fill="white" opacity="0.3" letter-spacing="1">DOCKER · OPTIMIZATION · DEVOPS · SECURITY</text>
</svg>